<?xml version="1.0" encoding="iso-8859-1"?>
<!-- Generator: Adobe Illustrator 19.0.0, SVG Export Plug-In . SVG Version: 6.00 Build 0)  -->
<svg version="1.1" id="Layer_1" xmlns="http://www.w3.org/2000/svg" xmlns:xlink="http://www.w3.org/1999/xlink" x="0px" y="0px"
	 viewBox="0 0 512 512" style="enable-background:new 0 0 512 512;" xml:space="preserve">
<g>
	<g>
		<path d="M256,0C114.833,0,0,114.844,0,256s114.833,256,256,256c68.375,0,132.667-26.625,181.021-74.979
			C485.375,388.667,512,324.385,512,256C512,114.844,397.167,0,256,0z M266.667,21.573
			c120.917,5.438,218.313,102.844,223.771,223.76H383.563c-5.146-62.083-54.813-111.75-116.896-116.896V21.573z M362.667,256
			c0,28.5-11.104,55.281-31.25,75.427c-20.146,20.146-46.938,31.24-75.417,31.24c-58.813,0-106.667-47.854-106.667-106.667
			S197.188,149.333,256,149.333S362.667,197.188,362.667,256z M256,490.667C126.604,490.667,21.333,385.396,21.333,256
			c0-125.796,99.57-228.492,224-234.126V128.54C179.734,133.99,128,189.017,128,256c0,70.583,57.417,128,128,128
			c30.602,0,59.522-10.737,82.592-30.314l75.436,75.427C370.708,468.738,315.102,490.667,256,490.667z M429.313,414.229
			l-75.583-75.563c17.289-20.358,27.139-45.395,29.34-72h107.108C487.717,321.786,466.555,373.523,429.313,414.229z"/>
	</g>
</g>
<g>
</g>
<g>
</g>
<g>
</g>
<g>
</g>
<g>
</g>
<g>
</g>
<g>
</g>
<g>
</g>
<g>
</g>
<g>
</g>
<g>
</g>
<g>
</g>
<g>
</g>
<g>
</g>
<g>
</g>
</svg>
